<?xml version="1.0" encoding="utf-8"?>
<!-- Generator: Adobe Illustrator 24.1.0, SVG Export Plug-In . SVG Version: 6.00 Build 0)  -->
<svg version="1.1" id="Layer_1" xmlns="http://www.w3.org/2000/svg" xmlns:xlink="http://www.w3.org/1999/xlink" x="0px" y="0px"
	 viewBox="0 0 1280 1024" style="enable-background:new 0 0 1280 1024;" xml:space="preserve">
<style type="text/css">
	.st0{fill:#803A2A;}
	.st1{fill:#7F2F2D;}
	.st2{fill:#54688B;}
	.st3{fill:#172866;}
	.st4{fill:#F2913D;}
	.st5{fill:#67B1C9;}
	.st6{fill:#F2A71B;}
	.st7{fill:#FC7575;}
	.st8{fill:#FD5E5A;}
	.st9{fill:#220D58;}
	.st10{fill:#F2B90C;}
	.st11{fill:#B65F2E;}
	.st12{fill:#F7931E;}
	.st13{fill:#591914;}
	.st14{fill:#2D1175;}
	.st15{fill:#B96E16;}
	.st16{fill:#F8E000;}
	.st17{fill:#F27F3D;}
	.st18{fill:#85C1D4;}
	.st19{fill:#E1F6FD;}
	.st20{fill:#43616A;}
	.st21{fill:#7C3B01;}
	.st22{fill:#F27F1B;}
	.st23{fill:#18287D;}
	.st24{fill:#ED5A5A;}
	.st25{fill:#F89938;}
	.st26{fill:#FFDA88;}
	.st27{fill:#8C251C;}
	.st28{fill:#FBB03B;}
	.st29{fill:#6F81A6;}
	.st30{fill:#42617C;}
	.st31{fill:#451F0A;}
	.st32{fill:#FF8888;}
	.st33{fill:#2F499F;}
	.st34{fill:#FFFFFF;}
	.st35{fill:#662D91;}
	.st36{fill:#0C143F;}
	.st37{fill:#99CFFF;}
	.st38{fill:#BBDFFF;}
	.st39{fill:#C46818;}
	.st40{fill:#0C1433;}
	.st41{fill:#233061;}
	.st42{fill:#4560C2;}
	.st43{fill:#7C5101;}
	.st44{fill:#6A80CE;}
	.st45{fill:#5C667B;}
	.st46{fill:#99C8F2;}
	.st47{fill:#B9CBF0;}
	.st48{fill:#1E3175;}
	.st49{fill:#B5BFE7;}
	.st50{fill:#8FA0DA;}
	.st51{fill:#3F1817;}
	.st52{fill:#381A3F;}
	.st53{fill:#653870;}
	.st54{fill:#53617D;}
	.st55{opacity:0.5;fill:#C2DEF7;}
	.st56{fill:#7396B6;}
	.st57{fill:#C2DEF7;}
</style>
<g>
	<polygon class="st0" points="804.72,391.28 794.27,374.47 781.48,388 800.84,397.23 	"/>
	<polygon class="st0" points="883.87,377.63 868.17,390.2 883.87,402.17 888.05,387.19 	"/>
	<polygon class="st1" points="581.22,414.94 563.72,402.17 550.41,413.06 572.36,425.07 	"/>
	<polygon class="st1" points="630.51,413.06 641.79,395.7 653.9,398.87 646.03,428.92 	"/>
	<path class="st2" d="M1137.01,1007.5c0,13.59-221.85,24.61-495.51,24.61S146,1021.09,146,1007.5c0-13.59,221.85-24.61,495.51-24.61
		S1137.01,993.91,1137.01,1007.5z"/>
	<path class="st3" d="M619.25,969.27L614,996.49c0,0,29.73,1.08,40.23,4.1c10.5,3.02,32.8,0,32.8,0s-1.75-7.87-22.3-14.99
		c-20.55-7.12-25.8-18.85-25.8-18.85L619.25,969.27z"/>
	<path class="st4" d="M653.36,563.42c0,0,31.48,214.44,31.48,240.41c0,25.97-31.48,167.53-31.48,167.53h-43.73
		c0,0,21.86-143.24,21.86-164.18c0-20.94-27.99-159.16-27.99-159.16l-31.48-83.17L653.36,563.42z"/>
	<path class="st3" d="M582.52,976.39c0,0,4.81,9.22,2.19,11.73c-2.62,2.51-8.31,27.64-19.24,31.83
		c-10.93,4.19-28.86,7.12-28.86,2.51c0-4.61,24.44-46.07,24.44-46.07H582.52z"/>
	<path class="st5" d="M542.73,417.25c0,0,9.18,58.22-3.06,85.02l12.68,65.76l101.01-4.61c0,0,9.62-56.12,9.62-96.33l4.37-56.54
		c0,0-38.04-17.17-63.84-15.5C577.71,396.72,542.73,417.25,542.73,417.25z"/>
	<path class="st6" d="M552.35,568.02c0,0-26.24,52.36-22.3,76.65c3.94,24.29,20.12,147.85,20.12,147.85l-4.81,18.43l10.93,167.11
		h34.98l11.81-140.73l-7.43-29.32l13.12-135.28l16.18-61.15l-3.03-46.73L552.35,568.02z"/>
	<path class="st7" d="M584.71,357.77l-2.65,41.8c0,0,9.65,26.47,24.95,22.7c15.3-3.77,21.42-24.67,21.42-24.67l-10.87-39.83H584.71z
		"/>
	<path class="st8" d="M617.56,357.77h-32.86l-0.24,3.71c7.37,23.03,24.09,29,31.57,28.79c3.05-0.09,7.02,0.65,10.66,1.01
		L617.56,357.77z"/>
	<g>
		<path class="st9" d="M569.36,318.75c2.53-0.08,5.9-0.31,9.39-0.58l0,0c7.89-0.55,15.52-0.81,22.56,2.6
			c-3.3,5.13,0.71,12.31,1.68,18.31c-10.27,1.99-22.57,3.83-32.44,0.11c-2.33-4.23-4.83-11.54-5.57-17.78
			C566.2,320.58,567.67,319.69,569.36,318.75z"/>
		<path class="st10" d="M588.38,290.69c0.03,0.27,2.95,24.91,2.92,24.64c10.33-0.87,24.67-1.14,34.99-1.04
			c-0.53-4.26-1.34-10.86-4.74-14.11c-4.54-4.35-12.47-11.49-20.2-12.15C594.87,287.47,591.53,289.62,588.38,290.69z"/>
		<path class="st10" d="M589.57,290.13c0.04,0.28,3.18,25.47,3.15,25.21c10.87-0.87,30.53-2.08,41.39-1.98
			c-0.55-4.18-2.03-8.45-4.02-12.19c-2.49-4.7-7.56-8.4-12.32-10.87c-4.53-2.35-9.58-3.45-14.73-3.2c-4.16,0.2-8.22,1.19-12.14,2.5
			C590.04,289.89,589.57,290.13,589.57,290.13z"/>
		<path class="st11" d="M583.01,291.14l5.1,24.62c0.3,0,13.96-1.46,33.07-1.46c0-6.21-0.41-13.19-4.59-18.28
			c-3.99-4.86-10.64-8.09-17.09-8.07c-2.94,0.01-5.85,0.63-8.59,1.65C588.2,289.8,585.18,290.46,583.01,291.14z"/>
		<path class="st12" d="M564.75,324.91c6.9-10.17,36.87-10.53,50.25-10.53c0.14-3.28,0.91-11.59-1.37-15.42
			c-8.47-14.19-39.92-12.93-47.89,7.19C564.05,310.5,564.37,319.74,564.75,324.91z"/>
		<g>
			<path class="st13" d="M580.46,298.81c0.03,0,0.06,0,0.09-0.01l4.67-1.11c0.18-0.04,0.3-0.22,0.25-0.4
				c-0.05-0.18-0.22-0.29-0.42-0.24l-4.67,1.11c-0.18,0.05-0.3,0.22-0.25,0.4C580.17,298.7,580.31,298.81,580.46,298.81z"/>
		</g>
		<g>
			<path class="st13" d="M580.93,301.35c0.03,0,0.06,0,0.09-0.01l4.21-1.1c0.18-0.05,0.29-0.23,0.24-0.41
				c-0.05-0.17-0.23-0.28-0.43-0.23l-4.21,1.1c-0.18,0.05-0.29,0.23-0.24,0.41C580.64,301.25,580.78,301.35,580.93,301.35z"/>
		</g>
		<g>
			<path class="st13" d="M570.31,302.4c0.04,0,0.08-0.01,0.12-0.02l4.33-1.6c0.18-0.06,0.27-0.26,0.2-0.43
				c-0.06-0.17-0.27-0.26-0.45-0.19l-4.33,1.6c-0.18,0.07-0.27,0.26-0.2,0.43C570.04,302.32,570.17,302.4,570.31,302.4z"/>
		</g>
		<g>
			<path class="st13" d="M570.31,304.44c0.04,0,0.08-0.01,0.12-0.02l4.33-1.49c0.18-0.06,0.27-0.25,0.21-0.42
				c-0.06-0.17-0.26-0.26-0.44-0.2l-4.33,1.49c-0.18,0.06-0.27,0.25-0.21,0.42C570.03,304.36,570.17,304.44,570.31,304.44z"/>
		</g>
		<g>
			<path class="st13" d="M576.51,300.37c0,0.5,0.42,0.9,0.94,0.9c0.52,0,0.94-0.4,0.94-0.9c0-0.5-0.42-0.9-0.94-0.9
				C576.93,299.47,576.51,299.87,576.51,300.37z"/>
		</g>
		<path class="st7" d="M629.06,320.82c0.95-0.01,1.9,0.66,2.26,1.5c0.74,1.77,1.33,3.51,1.66,5.14c2.39,11.6,5.42,30.17,5.42,30.17
			l-5.4,0.15c0,0-4.2,10.46-4,17.36c0.2,6.9-11.32,2.89-17.92,3.07c-6.6,0.18-21.46-4.89-27.74-24.55
			c-2.18-6.83-4.99-15.51-5.59-23.9c7.35-1.76,14.72-5.81,22.07-7.28C609.61,320.5,619.29,320.96,629.06,320.82z"/>
		<path class="st14" d="M600.18,322.42c-0.48,6.71,5.2,17.36,2.13,22.66l-5.95,1.26c0,0-1.32-3.36-3.72-3.3
			c-2.4,0.06-2.57,17.49-6.43,17.59c-3.86,0.1-11.79-14.51-15.59-21.31c-0.37-0.66-0.78-1.49-1.21-2.45
			c-1.09-2.43,0.61-6.85,3.07-8.04C580.58,324.91,588.31,323.97,600.18,322.42z"/>
		<path class="st14" d="M578.52,326.41c-0.56,0.18-1.11,0.4-1.66,0.6C577.41,326.8,577.96,326.59,578.52,326.41z"/>
		<path class="st14" d="M572.47,328.84c-0.29,0.14-0.57,0.33-0.84,0.56C571.9,329.17,572.18,328.98,572.47,328.84z"/>
		<path class="st14" d="M575.49,327.5c-0.93,0.38-1.87,0.79-2.8,1.24C573.62,328.29,574.56,327.88,575.49,327.5z"/>
		<path class="st14" d="M569.94,331.68c-0.07,0.14-0.14,0.28-0.2,0.42C569.81,331.95,569.87,331.82,569.94,331.68z"/>
		<path class="st14" d="M570.57,330.6c-0.11,0.16-0.23,0.32-0.33,0.49C570.35,330.92,570.46,330.76,570.57,330.6z"/>
		<path class="st14" d="M571.36,329.67c-0.16,0.16-0.33,0.32-0.48,0.5C571.03,329.98,571.19,329.83,571.36,329.67z"/>
		<polygon class="st14" points="569.19,336.12 569.19,336.12 569.19,336.12 		"/>
		<path class="st14" d="M595.78,323c-0.51,0.07-0.99,0.14-1.48,0.21C594.8,323.13,595.27,323.07,595.78,323z"/>
		<path class="st14" d="M581.62,325.51c-0.48,0.12-0.94,0.28-1.42,0.41C580.68,325.78,581.14,325.63,581.62,325.51z"/>
		<path class="st14" d="M591.88,323.54c-0.53,0.08-1.03,0.16-1.54,0.24C590.85,323.7,591.35,323.62,591.88,323.54z"/>
		<path class="st14" d="M584.85,324.75c-0.48,0.1-0.94,0.22-1.41,0.33C583.9,324.97,584.36,324.85,584.85,324.75z"/>
		<path class="st14" d="M588.24,324.11c-0.5,0.08-0.97,0.18-1.45,0.27C587.27,324.3,587.74,324.2,588.24,324.11z"/>
		<path class="st14" d="M569.19,334c-0.01,0.06-0.02,0.12-0.03,0.18C569.17,334.12,569.18,334.06,569.19,334z"/>
		<path class="st14" d="M569.09,335.1c0,0.03,0,0.06,0,0.09C569.09,335.16,569.09,335.13,569.09,335.1z"/>
		<path class="st8" d="M599.83,322.47c7.72-1.24,10.9-1.65,29.23-1.65c1.94,0,2.42,1.88,2.9,3.21c-6.45,0.35-19.11,1.76-31.3,3.55
			C600.29,325.73,599.95,322.45,599.83,322.47z"/>
		<path class="st14" d="M569.47,332.83c-0.03,0.1-0.06,0.2-0.09,0.31C569.41,333.04,569.44,332.94,569.47,332.83z"/>
		<path class="st14" d="M595.78,323c1.29-0.17,2.65-0.35,4.05-0.53l0,0C598.42,322.65,597.08,322.83,595.78,323z"/>
		<path class="st14" d="M586.79,324.39c-0.65,0.12-1.32,0.24-1.95,0.37C585.48,324.62,586.14,324.51,586.79,324.39z"/>
		<path class="st14" d="M569.74,332.1c-0.1,0.24-0.19,0.49-0.27,0.74C569.55,332.58,569.64,332.34,569.74,332.1z"/>
		<path class="st14" d="M569.19,336.12c-0.06-0.29-0.09-0.61-0.1-0.93C569.1,335.51,569.13,335.82,569.19,336.12z"/>
		<path class="st14" d="M590.34,323.78c-0.7,0.11-1.42,0.22-2.1,0.33C588.92,324,589.63,323.89,590.34,323.78z"/>
		<path class="st14" d="M594.3,323.2c-0.81,0.11-1.64,0.22-2.42,0.34C592.65,323.43,593.49,323.32,594.3,323.2z"/>
		<path class="st14" d="M583.43,325.08c-0.61,0.14-1.22,0.27-1.81,0.42C582.21,325.35,582.83,325.22,583.43,325.08z"/>
		<path class="st14" d="M572.47,328.84C572.47,328.84,572.47,328.83,572.47,328.84c0.08-0.04,0.15-0.06,0.22-0.1
			C572.62,328.77,572.55,328.8,572.47,328.84C572.47,328.83,572.47,328.84,572.47,328.84z"/>
		<path class="st14" d="M571.63,329.4c-0.09,0.08-0.18,0.18-0.27,0.27C571.45,329.58,571.53,329.48,571.63,329.4z"/>
		<path class="st14" d="M569.38,333.14c-0.08,0.29-0.15,0.57-0.19,0.86C569.24,333.71,569.3,333.43,569.38,333.14z"/>
		<path class="st14" d="M570.25,331.09c-0.11,0.19-0.21,0.39-0.31,0.59C570.04,331.48,570.13,331.28,570.25,331.09z"/>
		<path class="st14" d="M570.88,330.17c-0.11,0.14-0.21,0.29-0.31,0.43C570.67,330.45,570.77,330.31,570.88,330.17z"/>
		<path class="st14" d="M580.2,325.92c-0.56,0.16-1.13,0.31-1.68,0.49C579.07,326.23,579.64,326.08,580.2,325.92z"/>
		<path class="st14" d="M569.16,334.18c-0.04,0.31-0.07,0.62-0.07,0.92C569.09,334.8,569.12,334.49,569.16,334.18z"/>
		<path class="st14" d="M576.86,327.01c-0.46,0.17-0.91,0.31-1.37,0.5C575.94,327.32,576.4,327.17,576.86,327.01z"/>
		<path class="st9" d="M600.18,322.42c-0.11,1.55,0.11,3.31,0.48,5.16c-26.71,3.92-29.86,5.75-31.46,8.53
			C567.7,325.98,586.12,324.25,600.18,322.42z"/>
		<path class="st14" d="M626.59,331.45l0.54,2.73c0,0-5.03-0.44-7.71,2.27c-2.67,2.71-3.05,3.02-3.05,3.02
			S617.66,333.23,626.59,331.45z"/>
		<path class="st14" d="M623.72,342.5c2.92-0.08,2.78-5.1-0.15-5.02C622.36,337.51,620.8,342.58,623.72,342.5z"/>
		<path class="st14" d="M626.43,365.24c-2.4,0.06-5.21-0.56-6.48-2.56c-0.54-0.76-0.72-2.38-0.67-2.11
			c-0.18-1.08-1.88-0.82-1.7,0.26C618.08,363.92,621.45,366.16,626.43,365.24z"/>
		<path class="st7" d="M597.6,336.61c0,0,0.62,11.33-2.23,11.41c-2.85,0.08-9.29-6.18-8.44-13.04
			C587.79,328.13,596.07,328.72,597.6,336.61z"/>
		<path class="st8" d="M595.58,335.44c0,0,1.56,4.47-0.52,6.58c-2.08,2.11-6.35-2.7-4.18-6.45
			C593.04,331.81,595.05,332.85,595.58,335.44z"/>
		<path class="st15" d="M564.74,324.94v-0.03c6.55-10.25,34.57-10.33,47.73-10.53c7.24-0.24,29.02-2.34,29.02,3.46
			c0,2.2-5.21,4.6-9.76,5.58c-0.34-0.9-0.64-2.49-2.59-2.46c-15.75,0.23-42.6,1.08-56.66,7.88c-2.13,1.03-3.68,4.47-3.36,6.95
			C563.08,334.32,562.33,328.57,564.74,324.94z"/>
		<path class="st16" d="M564.25,324.62c8.99-15.03,71.36-16.58,78.75-10.33c3.13,2.65-0.79,6.53-8.04,8.32
			c3.32-1.29,4.8-2.45,5.38-3.31c6.01-9.05-52.22-4.55-66.54,0.41c-3.28,1.13-6.44,2.78-8.49,5.4v0.01
			c-0.14,0.27-1.5,1.82-1.48,4.39c-0.01,1.56,0.4,3.16,1.55,4.37C560.64,331.05,564.25,324.62,564.25,324.62z"/>
	</g>
	<path class="st6" d="M567.21,462.9l100.14-4.19c0,0,3.06,88.37-13.99,104.71l-87.89,4.61L567.21,462.9z"/>
	<path class="st17" d="M572.03,644.04l10.17-65.65c0,0-33.8,2.03-35.06,0.82c-1.27-1.21-27.25,60.75-27.25,60.75L572.03,644.04z"/>
	<polygon class="st17" points="632.69,577.22 639.91,642.16 673.69,639.02 655.29,576.69 	"/>
	<polygon class="st6" points="544.07,410.75 577.29,469.18 590.39,479.23 592.53,461.84 563.72,402.17 	"/>
	<polygon class="st6" points="641.79,395.7 633,464.77 641.79,481.05 655.12,463.48 659.06,400.22 	"/>
	<path class="st8" d="M666.29,582.88c0,0,18.32-3.57,20.93-1.06c2.62,2.5-19.88,8.2-19.88,8.2s24.63-3.8,24.63-1.21
		c0,2.58-29.6,11.9-29.6,11.9L666.29,582.88z"/>
	<path class="st18" d="M729.73,474.01c-25.39-27.68-58.89-63.47-62.37-63.47c-5.68,0-10.95,33.09-3.72,48.16
		c5.41,11.29,22.48,27.77,31.83,39.57C705.58,488.23,716.92,479.28,729.73,474.01z"/>
	<path class="st7" d="M729.73,474.01c-12.81,5.27-24.14,14.22-34.27,24.27c3.14,3.96,5.41,7.4,6.07,9.93
		c2.62,10.05-27.47,56.6-39.28,62.05c-11.81,5.44-4.78,10.12-4.78,13.79c0,3.66,2.89,7.54,2.89,9.79c0,2.25,0.86,5.76,2.03,6.87
		c1.16,1.11,4.09-3.58,30.11-26.4c26.02-22.83,66.03-61.9,66.03-68.61C758.53,505.7,745.74,491.47,729.73,474.01z"/>
	<path class="st19" d="M721.01,456.05c0,0,7.47,13.77,11.84,17.96c4.37,4.18,3.71,7.47,3.71,7.47l-37.69,21.45
		c0,0-11.06-5.76-11.06-8.19c0-2.43-4.44-8.1-4.44-8.1S712.53,451.76,721.01,456.05z"/>
	<path class="st8" d="M745.43,503.9c0,0-5.16,5.69-3.33,7.44c1.82,1.75,16.02-0.46,13.95-4.41
		C753.99,502.99,745.43,503.9,745.43,503.9z"/>
	<path class="st20" d="M552.3,436l-9.58-18.76c0,0-29.51,36.93-47.58,72.57c10.28,2.87,19.93,6.87,28.72,12.22L552.3,436z"/>
	<path class="st7" d="M518.98,513.37l4.88-11.33c-8.79-5.35-18.44-9.35-28.72-12.22c-5.62,11.08-10.15,22.03-12.33,31.72
		c-9.18,40.84,68.22,29.3,68.22,29.3l10.17-18.62C561.2,532.21,515.13,525.93,518.98,513.37z"/>
	<path class="st20" d="M512.73,477.32c0,0-8.46-5.2-13.11-3.31c-4.65,1.89-15.36,24.8-10.22,28.03
		c5.14,3.23,29.02,13.97,34.32,11.33c5.29-2.63,8.25-20.36,8.25-23.55C531.97,486.63,512.73,477.32,512.73,477.32z"/>
	<g>
		<path class="st21" d="M493.28,413.93c0,0-22.23-25.4-25.6-22.17c-3.37,3.23,4.03,17.31,8.68,19.23
			C481.02,412.92,493.28,413.93,493.28,413.93z"/>
		<path class="st8" d="M484.26,270.82c0.04-0.01-2.04-30.11-5.18-31.98c-3.22-1.92-0.79,5.82-0.9,8.8c-0.1,2.98-0.39,8.87-1.46,3.66
			c-1.07-5.2-7.86-21.91-10.09-22.71c-3.93-1.42,5.93,17.91,5.98,24.73c0,0-7.3-15.45-9.68-21.99c0,0-1.73-5.36-4.18-4.16
			c-2.45,1.2,1.78,6.78,2.76,10.63c0.98,3.85,5.66,13.85,6.3,15.21c0.64,1.36-2.02-1.39-4.41-6.5c-2.39-5.11-6.22-13.29-8.02-11.58
			c-1.79,1.71,5.28,13.62,7.94,19.29c2.66,5.68,3.53,7.4,1.64,6.72c-1.89-0.68-3.7-2.36-5.69-5.16c-1.99-2.8-5.51-0.38-2.71,3.84
			c2.8,4.22,10.75,9.78,13.7,12.27c0.48,0.4,5.66,5.32,6,5.78c0.33,0.53,0.7,1.22,1.13,2.05l0,0l0,0
			c6.05,11.94,21.03,53.65,13.63,74.81c-4.11,11.75-17.08,32.3-26.74,45.41c7.18,4.91,16.07,13.11,26.58,13.11
			c16.75-25.54,30.72-49.47,29.88-55.85C519.3,346.09,498.58,293.26,484.26,270.82z"/>
		<path class="st22" d="M467.68,391.76c-10.03,13.62-20.25,27.91-32.45,35.54c-16.15,10.11-17.62,16.88-18.9,18.83
			c13.58,12.58,12.82,50.48,25.57,35.35c9.39-11.14,33.21-39.86,51.38-67.55C485.77,407.27,473.83,402.17,467.68,391.76z"/>
		<path class="st3" d="M374.77,986.04c0,0-6.04,22.77-6.04,27.48c0,4.71,10.14,14.92,17.52,14.92c7.38,0,5.33-45.54,5.33-45.54
			L374.77,986.04z"/>
		<path class="st3" d="M459.61,986.04v9.81c0,0-5.74,12.17-5.74,16.09c0,3.93,0,9.42,0,9.42h48.77h25c0,0-17.39-13.35-32.05-17.67
			c-14.67-4.31-13.03-17.66-13.03-17.66H459.61z"/>
		<g>
			<path class="st23" d="M375.37,394.32c0,0-18.26,4.45-23.34,13.25c-5.07,8.79-9.36,17.7,3.89,26.21
				c13.24,8.51,6.47,15.6,6.47,15.6s6.62,0.08,10.5-8.67c3.88-8.75,0.58-14.07,0.58-14.07l4.64,6.91c0,0,4.48-29.12,4.48-33.38
				C382.6,395.9,375.37,394.32,375.37,394.32z"/>
			<path class="st8" d="M319.32,518.49c-0.31,1.33-3.04,13.64-3.65,14.23c-6.15,5.89-26.76-13.03-26.76-13.03l4.3,27.68
				c0,0,15.98,21.79,27.66,21.79c6.56,0,14.05-15.67,17.67-33C332.6,530.15,325.99,524.09,319.32,518.49z"/>
			<path class="st24" d="M319.32,518.49c-0.16,0.69-0.96,4.29-1.79,7.71l18.75,18.94c0.86-2.89,1.62-5.91,2.26-8.99
				C332.6,530.15,325.99,524.09,319.32,518.49z"/>
			<path class="st4" d="M334.1,431.65l13.83,148.09c0,0,50.41,20.02,86.68,3.53l5.53-122.48l-4.9-33.5c0,0-0.85,0.4-9.6-0.31
				c-9.14-0.75-22.01,6.44-35.44,6.39c-10.83-0.04-21.5-8.48-34.27-6.42C348.86,428.09,341.56,429.62,334.1,431.65z"/>
			<path class="st25" d="M347.93,579.74c0,0-24.59,61.24-19.06,96.57c5.53,35.33,19.67,146.03,19.67,146.03l19.38,169.09l27.95,0.49
				l4.82-156.53l8.71-160.85l-12.3-94.8H347.93z"/>
			<polygon class="st4" points="433.8,579.21 449.82,659.23 467.19,792.31 495.59,990.92 455.51,989.57 422.72,834.12 
				422.72,814.49 380.92,677.88 385.87,579.73 			"/>
			<path class="st26" d="M495.59,990.92c-42.31-235.72-32.17-240.8-64.15-407.46c4.58-77.4,2.82-49.31,7.73-122.71l0.01,0.17
				c-1.4-11.2-2.69-22.41-3.95-33.63c3.68,20.26,5.82,33.14,5.88,33.44c-0.83,30.42,1.98-70.91-3.36,122.67l-0.05-0.7
				c14.51,69.98,12.91,45.19,45.69,305.88c2.15,17.04,4.29,34.08,6.27,51.14C491.69,956.78,493.77,973.83,495.59,990.92z"/>
			<path class="st27" d="M394.73,455.4l-13.14,216.66c-0.01,0.25-0.24,0.44-0.5,0.42c-0.26-0.01-0.46-0.23-0.45-0.47l11.55-216.75
				c0.03-0.67,0.63-1.19,1.33-1.15C394.22,454.15,394.76,454.72,394.73,455.4L394.73,455.4z"/>
			<path class="st22" d="M339.14,541.27c2.83-13.55,2.14-32.71,1.03-44.57c-2.52-27.03-0.93-66.37-0.93-66.37
				s-14.61,0.48-21.99,20.84c-6.65,18.34,1.62,58.34-1.17,70.41C322.76,527.19,333.2,535.28,339.14,541.27z"/>
			<path class="st28" d="M277.23,506.73v514.64h23.36V506.73H277.23z M288.09,519.56c-1.23,0-2.23-0.96-2.23-2.14
				c0-1.18,1-2.14,2.23-2.14c1.23,0,2.23,0.96,2.23,2.14C290.32,518.61,289.32,519.56,288.09,519.56z"/>
			<rect x="277.23" y="506.73" class="st29" width="23.36" height="4.92"/>
			<path class="st7" d="M272.93,516.93c0,0,10.25,4.51,12.5,8.44c2.26,3.93-6.25,3.53-6.25,3.53s11.27,6.18,8.1,9.23
				c-3.18,3.04-5.95,1.37-5.95,1.37s8.5,3.63,5.33,6.67c-3.18,3.04-6.28,0.78-6.28,0.78s3.31,2.06,1.77,3.53
				c-1.54,1.47-5.33,2.55-9.22,1.18c-3.89-1.37-5.12-6.08-6.56-11.58C264.93,534.6,265.75,518.11,272.93,516.93z"/>
			<path class="st7" d="M301.75,519.56c0,0-8.74,8.36-7.72,11.89c1.02,3.53,10.04-1.18,11.88-4.52
				C307.76,523.61,301.75,519.56,301.75,519.56z"/>
			<polygon class="st30" points="414.94,419.29 368.73,419.29 377.6,429.98 407.42,431.24 			"/>
			<path class="st17" d="M401.86,315.62c-10.78-2.27-24.67,1.1-29.91,9.27c-2.12,3.31-2.98,7.41-3.67,11.18
				c-1.51,8.18-1.84,16.59-1.81,24.88c0,1.14,0.01,2.29,0.05,3.43c0,0,53.17,2.96,53.2,2.97c0.31,0.02,0.83-10.84,0.85-11.48
				c0.21-7.61-0.11-15.41-2.06-22.82c-1.27-4.83-3.32-9.95-7.37-13.28C408.67,317.74,405.44,316.37,401.86,315.62z"/>
			<path class="st31" d="M414.3,330.29c-9.68-5.33-25.5-9.57-39.64-2.13c-14.14,7.45-12.23,42.89-9.63,50.93
				c2.96,9.17,8.11,12.83,10.05,13.14l37.55,0.41C429.28,388.26,430.56,339.25,414.3,330.29z"/>
			<path class="st10" d="M422.2,382.32c4.25-11.3,5.16-25.09,0.63-40.31c-1.56-3.6-3.23-8.27-7.77-11.18
				c-12.12-7.45-28.93-8.89-40.3,0.65c-3.93,3.29-5.76,5.1-8.3,11.61c-4.26,12.49-3.39,28.96-1.43,36.01
				c-5.06-10.64-6.14-44.71,9.23-56.25c10.12-7.6,33.77-5.15,42.9,1.77C431.42,334.46,431.47,367.32,422.2,382.32z"/>
			<path class="st7" d="M375.57,369.48c1.35,5.18-0.11,9.99-3.27,10.75c-3.16,0.76-6.82-2.82-8.17-8
				c-1.35-5.18,0.11-9.99,3.27-10.74C370.55,360.72,374.21,364.3,375.57,369.48z"/>
			<path class="st8" d="M371.81,368.15c-0.32-0.28-3.28-5.49-5.29-3.77c-2.01,1.73-0.47,14.44,2.29,12.07
				C371.57,374.08,371.81,368.15,371.81,368.15z"/>
			<path class="st7" d="M425.57,373.32c-1.67,5.32-5.65,8.88-8.89,7.95c-3.23-0.93-4.49-6.01-2.82-11.33
				c1.67-5.32,5.65-8.88,8.89-7.95C425.98,362.92,427.24,367.99,425.57,373.32z"/>
			<path class="st8" d="M417.16,369.61c0,0,1.61-4.94,4.61-3.8c3,1.13,0.27,10.79-2.31,11.72
				C416.89,378.44,415.26,372.76,417.16,369.61z"/>
			<polygon class="st7" points="379.79,397.62 377.93,437.47 393.35,457.27 405.79,442.45 408.76,392.64 			"/>
			<path class="st8" d="M408.76,392.64l-28.97,4.98l0.05,3.94c0,5.4,8.45,12.99,12.8,13.46c7.58,0.82,13.67-7.86,15.71-15.45
				L408.76,392.64z"/>
			<path class="st32" d="M373.11,341.42c-3.39,5.08-3.34,14.95-3.71,23.84c-0.52,12.11,5.2,40.79,20.55,42.21
				c15.35,1.42,23.37-12.96,26.84-24.35c3.47-11.38,3.37-34.94-4.8-42.77C403.81,332.52,379.9,331.24,373.11,341.42z"/>
			<path class="st23" d="M371.81,341.42c-2.66,3.98-3.11,13.4-2.45,20.12c3.76-10.33,23.61-25.98,25.47-27.3
				C386.07,333.62,375.61,335.72,371.81,341.42z"/>
			<path class="st33" d="M418.94,362.69c-0.52-7.11,1.56-16.45-6.18-23.1c-3.75-3.23-11.11-4.84-17.94-5.36
				C397.9,342.45,411.56,357.96,418.94,362.69z"/>
			<path class="st34" d="M406.68,384.76c-8.09,11.55-23.27,5.64-23.32,4.27L406.68,384.76z"/>
			<path class="st35" d="M390.69,377.36c0.83-1.46,2.41-3.5,4.11-3.8c1.73,0.13,3.32,2.31,4.1,3.79
				C394.8,373.24,394.88,373.36,390.69,377.36z"/>
			<path class="st35" d="M400.44,356.95c0,0,4.58-1.78,6.31-1.78c1.73,0,8.05,4.03,8.05,4.03s-5.82-3.44-8.54-2.73
				c-2.72,0.71-4.7,3.2-5.82,2.14C399.32,357.54,400.44,356.95,400.44,356.95z"/>
			<path class="st35" d="M388.37,356.95c0,0-4.58-1.78-6.31-1.78c-1.73,0-8.05,4.03-8.05,4.03s5.82-3.44,8.54-2.73
				c2.73,0.71,4.71,3.2,5.82,2.14C389.48,357.54,388.37,356.95,388.37,356.95z"/>
			<path class="st8" d="M385.68,372.35c0,1.72-2.61,3.11-5.84,3.11c-3.22,0-5.84-1.39-5.84-3.11c0-1.72,2.61-3.11,5.84-3.11
				C383.06,369.25,385.68,370.64,385.68,372.35z"/>
			<path class="st8" d="M416.13,372.67c0,1.54-2.66,2.8-5.94,2.8c-3.29,0-5.95-1.25-5.95-2.8c0-1.54,2.66-2.8,5.95-2.8
				C413.47,369.87,416.13,371.12,416.13,372.67z"/>
			<g>
				<path class="st35" d="M407.17,364.42c0,1.14-0.89,2.07-1.99,2.07c-1.1,0-2-0.93-2-2.07c0-1.14,0.89-2.07,2-2.07
					C406.28,362.35,407.17,363.28,407.17,364.42z"/>
				<path class="st36" d="M400.37,365.16c5.59-9.49,11.35,3.25,15.11-0.58c-0.65,1.38-2.65,1.82-4.19,1.24
					C406.24,364,406.7,360.59,400.37,365.16z"/>
			</g>
			<g>
				<path class="st35" d="M382.41,363.79c-0.06,1.14,0.78,2.11,1.88,2.17c1.1,0.06,2.05-0.82,2.11-1.96
					c0.07-1.14-0.78-2.11-1.88-2.17C383.42,361.77,382.47,362.65,382.41,363.79z"/>
				<path class="st36" d="M389.16,364.87c-5.05-9.77-11.52,2.66-15.06-1.35c0.58,1.41,2.54,1.95,4.12,1.46
					C383.36,363.41,383.09,359.98,389.16,364.87z"/>
			</g>
			<polygon class="st37" points="368.73,419.29 377.6,426.06 393.35,457.27 355.92,426.95 			"/>
			<polygon class="st37" points="414.94,419.29 408.58,424.92 393.35,457.27 425.64,426.99 			"/>
			<polygon class="st38" points="362.68,428.12 377.6,426.06 368.73,419.29 357.11,420.61 			"/>
			<polygon class="st38" points="417.02,425.77 408.58,424.92 414.94,419.29 423.34,419.29 			"/>
			<polygon class="st4" points="341.13,611.22 370.54,621.11 367.35,628.6 338.54,616.45 			"/>
			<polygon class="st39" points="408.33,626.07 433.69,608.71 438.26,615.51 411.31,631.11 			"/>
		</g>
	</g>
	<g>
		<path class="st40" d="M717.84,681.44c-0.01-1.07-0.1-11.25-0.1-10.77c-0.03-7.06,4.64-11.02,9.95-11.2
			c0.49-0.01,12.09-0.12,11.35-0.11c21.39-0.25,18.79,4.04,18.95,24.83h-5.74c0-0.49,0.12-13.68,0.11-12.92
			c0.01-6.54-2.45-6.93-8.84-6.97c-1.07-0.01-13.99-0.12-13.49-0.11c-1.73,0.06-2.25-0.16-3.67,0.25c-4.4,1.33-3.95,5.28-3.96,8.38
			l-0.08,8.61H717.84z"/>
		<path class="st7" d="M725.62,644.54c0,0-4,20.12,0,23.94c4,3.83,6.76,0,8.81,0c2.05,0,3.38,1.67,5.12,0
			c1.74-1.67,7.91,0.67,9.63-0.98c1.73-1.65-1.97-20.41-1.97-24.34C747.22,639.24,725.62,644.54,725.62,644.54z"/>
		<g>
			<path class="st3" d="M792.33,964.98c0.66,3.85,1.02,5.95,1.02,5.95l-18.12,30.44l14.95,25.44l20.08-28.97v-31.8L792.33,964.98z"
				/>
			<path class="st3" d="M893.25,971.93c-6.76-6.48-4.3-9.03-4.3-9.03l-23.98,2.08v11.66l-4.3,14.72l-0.62,6.48l83.61-1.18
				C943.66,996.66,900.01,978.41,893.25,971.93z"/>
			<path class="st41" d="M909.03,394.09c0,0,25.24,52.42,39.28,91.08c4.98,13.7-5.18,47.72-5.18,47.72
				c-14.9,1.01-36.3-8.24-37.91-13.07C902.69,512.2,909.03,394.09,909.03,394.09z"/>
			<path class="st42" d="M766.4,397.23l15.57,188.43l116.4,7.07l10.66-198.63c0,0-28.69-19.63-71.31-19.63
				C795.09,374.47,766.4,397.23,766.4,397.23z"/>
			<g>
				<path class="st10" d="M900.71,549.15l8.32-54.09l-20.49-68.77h-98.36c0,0-4.1,95.78-23.77,102.06v18.06
					c0,0-0.18,76.94-8.29,126.4c-7.36,44.92,24.05,255.89,30.55,293.95l21.59-0.71h15.98c0,0-15.98-147.21-15.98-170.76
					c0-23.55,27.46-133.08,27.46-133.08l21.72,143.68v160.16l39.34-3.14l14.14-172.53L900.71,549.15z"/>
			</g>
			<path class="st6" d="M902.96,593.5l-2.25-44.35l4.87-31.66c-21.51-14.82-102.56-70.54-103.62-69.52
				c-1.23,1.17,30.59,62.25,30.59,62.25s-6.78,20.66,4.06,31.04C845.68,549.95,888.16,578.04,902.96,593.5z"/>
			<path class="st6" d="M785.28,677.61c-7.15-6.85-20.69-4.94-27.37-3.45c-3.35,24.36,3.08,90.46,11.03,154.29
				c4.96-2.41,10.83-5.43,16.34-8.67C798.39,812.09,795.01,686.93,785.28,677.61z"/>
			<path class="st43" d="M790.17,426.29c0.22,21.3-4.64,96.64-23.77,102.06C782.59,520.76,788.35,446.21,790.17,426.29z"/>
			<polygon class="st6" points="794.27,374.47 810.26,429.86 807.18,440.96 794.27,429.86 776.44,383.69 			"/>
			<polygon class="st6" points="883.87,377.63 871.12,429.86 871.12,440.96 884.65,432.56 901.24,385.46 			"/>
			<polygon class="st6" points="766.4,536.79 902.61,536.79 901.25,559.75 766.4,559.75 			"/>
			<path class="st44" d="M766.4,397.23c0,0-17.23,11.47-26.45,35.95c-9.22,24.49-23.55,123.62-23.55,153.06
				c0,29.44,4.71,60.06,4.71,60.06h28.89c0,0,9.84-111.29,12.91-124.54c3.07-13.25,6.76-24.24,13.52-38.18
				C783.21,469.66,766.4,397.23,766.4,397.23z"/>
			<path class="st29" d="M834.51,423.73L1016.82,631l-15.37,21.79L799.19,457.29C799.19,457.29,800.97,423.73,834.51,423.73z"/>
			<path class="st45" d="M831.16,437.27l-6.15-7.41c0,0-20.29,14.43-20.29,26.26c0,11.82,182.59,168.99,182.59,168.99l9.22-3.53
				L831.16,437.27z"/>
			<path class="st46" d="M804.72,456.12c0,0,29.79-8.83,29.79-32.39L1016.82,631c0,0,0,15.9-15.37,21.79L804.72,456.12z"/>
			<path class="st47" d="M890.18,399.3l36.89,234.65h20.08L933.21,399.3C933.21,399.3,920.1,384.87,890.18,399.3z"/>
			<path class="st7" d="M927.09,529.81c0,0-8.47,10.85-20.62,12.27c-12.15,1.42-20.98-6.15-24.46-6.15
				c-3.47,0-14.04-0.95-19.41,1.42c-5.36,2.36-23.82-13.31-23.82-13.31s-8.11-16.56-5.83-17.53c2.28-0.97,12.93,19.49,15.61,19.49
				c2.68,0-10.1-17.76-7.42-19.52c2.68-1.76,9.31,18.34,15.94,19.52c6.63,1.18,10.02-0.83,7.42-4.73c-2.6-3.9-9.79-8.75-7.26-10.17
				c0.8-0.45,10.11,8.52,20.03,8.31c11.58-0.25,24.62-6.22,35.53-3.14C921.97,518.85,926.52,528.96,927.09,529.81z"/>
			<path class="st48" d="M744.24,805.88h-12.96c-18.67,0-33.8-15.13-33.8-33.8v-63.12c0-18.67,15.13-33.8,33.8-33.8h12.95
				c18.67,0,33.8,15.13,33.8,33.8v63.11C778.05,790.75,762.91,805.88,744.24,805.88z"/>
			<path class="st49" d="M761.57,805.88L761.57,805.88c-9.1,0-16.48-7.38-16.48-16.48v-97.77c0-9.1,7.38-16.48,16.48-16.48h0
				c9.1,0,16.48,7.38,16.48,16.48v97.77C778.05,798.51,770.67,805.88,761.57,805.88z"/>
			<path class="st43" d="M880.47,432.51c0,1.46-1.62,2.65-3.61,2.65c-1.99,0-3.61-1.19-3.61-2.65c0-1.46,1.62-2.65,3.61-2.65
				C878.85,429.86,880.47,431.05,880.47,432.51z"/>
			<path class="st43" d="M804.72,430.41c0,1.16-1.24,2.1-2.76,2.1c-1.53,0-2.77-0.94-2.77-2.1c0-1.16,1.24-2.1,2.77-2.1
				C803.49,428.31,804.72,429.25,804.72,430.41z"/>
			<path class="st50" d="M948.31,485.17c0,0-46.93,41.63-73.31,29.07l-0.91,29.32c0,0,63.02,3.56,73.06-15.21
				C957.19,509.58,948.31,485.17,948.31,485.17z"/>
		</g>
	</g>
	<g>
		<polygon class="st51" points="846.71,302.87 801.96,321.88 795.68,319.73 796.78,310.63 813.08,297.49 853.86,281.42 
			876.19,278.76 876.92,281.05 873.97,286.46 		"/>
		<path class="st52" d="M826.29,353.27c-0.96-0.58-12.87-28.96-12.87-28.96s-7.94-21.3-2.81-24.91
			c5.13-3.61,17.33-16.11,28.02-16.34c10.69-0.23,17.86,2.84,18.81,3.42c0.96,0.58,7.89,11.78,7.89,11.78s-3.23-3.77-4.89,10.22
			C858.79,322.49,826.29,353.27,826.29,353.27z"/>
		<path class="st7" d="M853.26,351.99c-1.27,3.62-0.72,29.5-1.72,36.01c-0.99,6.43-31.64,16.4-32.25-7
			c-0.6-23.39,1.81-50.91,1.81-50.91L853.26,351.99z"/>
		<path class="st8" d="M853.26,351.99L853.26,351.99L853.26,351.99l-10.67-7.27L821.1,330.1c0,0,0,0.01,0,0.04c0,0.01,0,0.02,0,0.03
			c0,0,0,0.01,0,0.01c-0.01,0.1-0.02,0.28-0.05,0.54c-0.07,0.85-0.21,2.55-0.38,4.9v0.01c-0.04,0.48-0.07,0.98-0.11,1.5
			c0,0.03-0.01,0.07-0.01,0.1c-0.12,1.7-0.25,3.65-0.38,5.81c-0.01,0.12-0.01,0.24-0.02,0.36c-0.03,0.51-0.06,1.03-0.09,1.56
			c0,0,0,0.01,0,0.02c-0.01,0.28-0.03,0.55-0.05,0.84c0,0.03,0,0.06,0,0.09c-0.01,0.11-0.01,0.21-0.02,0.32c0,0.04,0,0.08-0.01,0.12
			c-0.01,0.18-0.02,0.37-0.03,0.55c3.99,12.54,19.08,26.16,32.14,27.78c0.03-0.86,0.08-1.74,0.14-2.62
			C852.4,363.28,852.54,354.05,853.26,351.99z"/>
		<path class="st7" d="M819.89,308.67c-3.93,9.35-4.14,26.46,5.22,39.4c9.36,12.94,22.28,19.61,31.54,13.09
			c9.26-6.53,11.9-47.47,5.21-58.01C855.18,292.61,825.88,294.41,819.89,308.67z"/>
		<path class="st53" d="M819.9,347.97c0,0-2.08-13.39-7.45-16.66c-5.36-3.26-7.78-5.25-8.75-9.98c-0.97-4.73-12.83-14.41-9.91-22.19
			c2.92-7.78,10.91-4.89,18.03-18.42c7.13-13.52,14.81-21,31.43-16.08c16.61,4.93,18.92,14.63,18.92,14.63s7.33-1.22,11.81,7.18
			c4.48,8.4,1.27,13.17-1.62,17.11c0,0,0.62-11.09-3.35-10.32c-3.97,0.77,0.03,12.97,0.03,12.97s-5.97-4.67-12.32-11.9
			c-6.36-7.23-4.79,1.23-2.91,10.39c1.88,9.16-12.22,0.53-18.48-6.1c-6.27-6.63-15.23-0.43-18.5,8.96
			C813.54,316.97,827.65,331.72,819.9,347.97z"/>
		<path class="st7" d="M822.98,323.35c0,0-5.86-9.58-8.9-5.42s-0.54,16.6,5.92,16.72C826.46,334.78,822.98,323.35,822.98,323.35z"/>
		<path class="st8" d="M819.67,324.05c0,0,0.22-5.55-2.92-3.71c-3.14,1.84,0.02,10.75,2.92,10.58
			C822.57,330.74,819.67,324.05,819.67,324.05z"/>
		<path class="st3" d="M852.88,321.48c1.12,2.53,1.88,5.19,2.35,7.91c0.93,5.88-0.05,8.39-0.09,8.76c-0.71-0.13-2.61-0.4-5.12-1.03
			c1.62-0.05,3.22-0.01,4.82,0.08l-0.54,0.38C854.56,332.26,853.48,326.93,852.88,321.48z"/>
		<path class="st33" d="M844.96,322.9c0.34,1.66-0.42,3.21-1.69,3.46c-1.27,0.25-2.58-0.9-2.92-2.56c-0.34-1.66,0.42-3.21,1.69-3.46
			C843.31,320.09,844.62,321.24,844.96,322.9z"/>
		<path class="st33" d="M862.5,320.52c0.34,1.66-0.41,3.21-1.69,3.46c-1.27,0.25-2.58-0.9-2.92-2.56c-0.34-1.66,0.42-3.21,1.69-3.46
			C860.85,317.71,862.16,318.85,862.5,320.52z"/>
		<path class="st3" d="M834.99,318.69c0,0,2.69-4.53,7.18-5.4c4.49-0.87,3.13,2.75,2.09,2.95
			C843.21,316.44,834.81,317.84,834.99,318.69z"/>
		<path class="st3" d="M856.39,311.2c0,0,5.32,1.51,6.32,3.85c0,0-5.63-0.45-6.64-1.71C855.06,312.07,856.39,311.2,856.39,311.2z"/>
		<path class="st34" d="M838.72,344.27c0,0,13.72,4.94,21.16,0.19c0,0-2.09,6.62-3.98,7.81
			C851.91,354.79,842.09,352.88,838.72,344.27z"/>
		<path class="st10" d="M809.49,264c0.13,0.31,11.55,27.9,11.43,27.6c11.65-4.1,28.14-8.7,40.1-11.68
			c-2.01-4.77-5.1-12.15-10.08-14.9c-6.67-3.67-18.16-9.54-27.31-7.99C815.94,258.33,812.79,261.82,809.49,264z"/>
		<path class="st10" d="M810.69,263c0.13,0.31,12,28.48,11.87,28.18c12.28-4.26,34.6-11.55,47.19-14.68
			c-2-4.66-5.11-9.16-8.62-12.88c-4.42-4.68-11.48-7.45-17.79-8.87c-6.01-1.36-12.2-1.11-18.07,0.72
			c-4.74,1.48-9.11,3.84-13.21,6.52C811.15,262.58,810.69,263,810.69,263z"/>
		<path class="st11" d="M803.44,266.13l13.94,26.92c0.34-0.09,15.66-5.87,37.75-11.6c-2.03-7.18-4.78-15.12-11.28-19.75
			c-6.2-4.42-14.94-6.16-22.39-4.21c-3.4,0.89-6.56,2.48-9.38,4.48C809,263.02,805.72,264.69,803.44,266.13z"/>
		<path class="st12" d="M793.37,310.63c4.65-13.82,39.17-23.22,54.63-27.23c-0.91-3.83-2.74-13.67-6.62-17.4
			c-14.42-13.86-50.36-2.99-53,22.66C787.85,294.19,791.24,304.76,793.37,310.63z"/>
		<path class="st15" d="M793.36,310.67l-0.01-0.03c4.23-13.8,36.58-22.29,51.72-26.47c8.29-2.45,32.77-11.4,34.67-4.69
			c0.72,2.54-1.29,4.06-5.77,6.99c-0.7-0.94,5.14-6.7-4.98-4.72c-18.44,3.62-45.6,6.74-69.32,29.46c-4.93,4.73-1.06,8.77,2.29,10.69
			C794.5,322.01,791.77,315.58,793.36,310.67z"/>
		<path class="st16" d="M792.69,310.45c5.48-20.06,77.06-40.54,87.64-35.53c4.48,2.12,1.43,7.3-6.36,11.54
			c3.42-2.48,4.54-3.78,4.91-4.95c4-12.25-61.84,10.39-76.77,20.41c-3.42,2.29-6.53,5.14-8.05,8.79l0,0.01
			c-0.08,0.35-1.14,2.56-0.27,5.52c0.5,1.8,1.48,3.53,3.22,4.59C790.62,318.96,792.69,310.45,792.69,310.45z"/>
	</g>
	<g>
		<path class="st54" d="M536.6,422.64c5.61-6.36,35.29-7.92,34.44,4.66c-0.85,12.58-18.12,46.07-18.12,46.07l-19.37-3.43
			L536.6,422.64z"/>
		<path class="st46" d="M561.2,427.3c0,0-18.99,0.71-24.6-4.66l-3.06,47.3l20.77,1.33L561.2,427.3z"/>
		<path class="st29" d="M525.78,427.3L508.4,647.18c0,0,15.1,16.56,29.07,3.18l2.19-8.85c0,0,32.94-201.01,31.37-214.21
			C571.04,427.3,549.07,441.43,525.78,427.3z"/>
		<path class="st55" d="M547.37,433.58c-6.59-0.08-14.02-1.68-21.59-6.28L508.4,647.18c0,0,5.88,6.46,13.71,8.05L547.37,433.58z"/>
	</g>
	<g>
		<path class="st54" d="M565.47,454.94c0,0-2.07-1.95-0.98-3.77c0.65-1.1,2.63-2,6.39-2.83c10-2.2,30.86,5.98,34.37,12.96
			c3.51,6.98,0,12.06,0,12.06l-13.87,16.13l-35.75-16.3L565.47,454.94z"/>
		<path class="st56" d="M595.96,468.13L485.11,621.11l-7.87-2.51l87.24-167.43C563.72,461.27,588.09,471.59,595.96,468.13z"/>
		<path class="st57" d="M555.63,451.17c0,0,27.42,40.94,49.62,22.2L496.92,631.79c0,0-19.35,3.77-27.22-15.08L555.63,451.17z"/>
	</g>
	<path class="st17" d="M646.03,467.92c0,2.43-2.05,4.39-4.59,4.39c-2.53,0-4.59-1.97-4.59-4.39c0-2.43,2.05-4.39,4.59-4.39
		C643.97,463.53,646.03,465.5,646.03,467.92z"/>
	<path class="st7" d="M487.66,541.64c0,0,8.46,10.85,20.61,12.27c12.15,1.42,20.98-6.15,24.46-6.15c3.47,0,14.04-0.95,19.41,1.42
		c5.36,2.36,23.82-13.3,23.82-13.3s8.11-16.56,5.83-17.53c-2.28-0.97-12.93,19.49-15.61,19.49c-2.68,0,10.1-17.76,7.41-19.52
		c-2.68-1.76-9.31,18.34-15.94,19.52c-6.63,1.18-10.02-0.83-7.42-4.73c2.6-3.9,9.78-8.75,7.26-10.17
		c-0.8-0.45-10.11,8.52-20.03,8.31c-11.58-0.25-24.62-6.22-35.53-3.14C492.78,530.68,488.23,540.78,487.66,541.64z"/>
	<path class="st8" d="M485.25,528.45c0,0-0.92,7.9,3.51,10.03C493.17,540.6,496.56,525.62,485.25,528.45z"/>
</g>
</svg>
